<svg width="161" height="41" viewBox="0 0 161 41" fill="none" xmlns="http://www.w3.org/2000/svg">
<path d="M40.3601 0.544325L10.6572 0.53418C6.64849 0.532731 4.64124 5.37911 7.47457 8.21389C8.32095 9.06027 9.46878 9.53418 10.6659 9.53128L31.4195 9.48491L31.3731 30.2385C31.3702 31.4356 31.8441 32.5835 32.6905 33.4298C35.5253 36.2646 40.3717 34.2559 40.3702 30.2472L40.3601 0.544325Z" fill="black" fill-opacity="0.8"/>
<path d="M24.9804 12.8226L12.2934 25.5096C11.4543 26.3472 11.4543 27.7067 12.2934 28.5458C12.7123 28.9646 13.2615 29.1748 13.8108 29.1748C14.3601 29.1748 14.9094 28.9646 15.3282 28.5458L28.0151 15.8588C28.8528 15.0197 28.8528 13.6617 28.0151 12.8226C27.1789 11.9849 25.8195 11.9849 24.9804 12.8226Z" fill="black" fill-opacity="0.8"/>
<path d="M16.5038 12.4716C15.6661 11.6325 14.3067 11.6325 13.4676 12.4716L0.780605 25.1586C-0.0570765 25.9977 -0.0570765 27.3557 0.780605 28.1948C1.19945 28.6137 1.74872 28.8238 2.298 28.8238C2.84727 28.8238 3.39655 28.6137 3.81539 28.1948L16.5023 15.5079C17.3415 14.6687 17.3415 13.3093 16.5038 12.4716Z" fill="black" fill-opacity="0.8"/>
<path d="M24.7449 24.182L12.0579 36.8689C11.2203 37.7066 11.2203 39.066 12.0579 39.9052C12.4768 40.324 13.0261 40.5341 13.5753 40.5341C14.1246 40.5341 14.6739 40.324 15.0927 39.9052L27.7797 27.2182C28.6188 26.3805 28.6188 25.0211 27.7797 24.182C26.942 23.3443 25.5826 23.3443 24.7449 24.182Z" fill="black" fill-opacity="0.8"/>
<path d="M40.3601 0.544325L10.6572 0.53418C6.64849 0.532731 4.64124 5.37911 7.47457 8.21389C8.32095 9.06027 9.46878 9.53418 10.6659 9.53128L31.4195 9.48491L31.3731 30.2385C31.3702 31.4356 31.8441 32.5835 32.6905 33.4298C35.5253 36.2646 40.3717 34.2559 40.3702 30.2472L40.3601 0.544325Z" fill="url(#paint0_linear_273_2027)"/>
<path d="M24.9804 12.8226L12.2934 25.5096C11.4543 26.3472 11.4543 27.7067 12.2934 28.5458C12.7123 28.9646 13.2615 29.1748 13.8108 29.1748C14.3601 29.1748 14.9094 28.9646 15.3282 28.5458L28.0151 15.8588C28.8528 15.0197 28.8528 13.6617 28.0151 12.8226C27.1789 11.9849 25.8195 11.9849 24.9804 12.8226Z" fill="url(#paint1_linear_273_2027)"/>
<path d="M16.5038 12.4716C15.6661 11.6325 14.3067 11.6325 13.4676 12.4716L0.780605 25.1586C-0.0570765 25.9977 -0.0570765 27.3557 0.780605 28.1948C1.19945 28.6137 1.74872 28.8238 2.298 28.8238C2.84727 28.8238 3.39655 28.6137 3.81539 28.1948L16.5023 15.5079C17.3415 14.6687 17.3415 13.3093 16.5038 12.4716Z" fill="url(#paint2_linear_273_2027)"/>
<path d="M24.7449 24.182L12.0579 36.8689C11.2203 37.7066 11.2203 39.066 12.0579 39.9052C12.4768 40.324 13.0261 40.5341 13.5753 40.5341C14.1246 40.5341 14.6739 40.324 15.0927 39.9052L27.7797 27.2182C28.6188 26.3805 28.6188 25.0211 27.7797 24.182C26.942 23.3443 25.5826 23.3443 24.7449 24.182Z" fill="url(#paint3_linear_273_2027)"/>
<path d="M80.5036 8.26855L76.2582 24.0642L71.6956 8.26855H68.6346L64.0439 24.0642L59.7985 8.26855H56.3047L62.022 28.4831H65.8627L70.1659 13.7265L74.4394 28.4831H78.2801L83.9974 8.26855H80.5036Z" fill="black"/>
<path d="M91.4791 13.6689C89.3415 13.6689 87.5426 14.4007 86.079 15.8643C84.5972 17.3478 83.8555 19.1467 83.8555 21.2645C83.8555 23.3822 84.5972 25.1828 86.079 26.6646C87.5426 28.1282 89.3415 28.86 91.4791 28.86C93.6167 28.86 95.4156 28.1282 96.8792 26.6646C98.361 25.1828 99.1027 23.3822 99.1027 21.2645C99.1027 19.1467 98.361 17.3478 96.8792 15.8643C95.4156 14.4007 93.615 13.6689 91.4791 13.6689ZM94.6838 24.527C93.8182 25.3926 92.7494 25.8271 91.4791 25.8271C90.2087 25.8271 89.14 25.3943 88.2743 24.527C87.4087 23.6597 86.9743 22.5728 86.9743 21.2645C86.9743 19.9561 87.4071 18.8675 88.2743 18.0019C89.14 17.1363 90.2087 16.7019 91.4791 16.7019C92.7494 16.7019 93.8182 17.1347 94.6838 18.0019C95.5511 18.8675 95.9839 19.9561 95.9839 21.2645C95.9839 22.5744 95.5494 23.6614 94.6838 24.527Z" fill="black"/>
<path d="M105.049 16.4705V14.0455H101.93V28.4832H105.049V21.2065C105.049 19.7248 105.491 18.6659 106.377 18.0299C107.282 17.3758 108.321 17.0867 109.495 17.1643V13.7861C107.318 13.7845 105.836 14.6798 105.049 16.4705Z" fill="black"/>
<path d="M124.338 14.0453H120.525L114.924 20.4267V8.26855H111.805V28.4831H114.924V21.8126L120.842 28.4831H124.567L117.985 21.1188L124.338 14.0453Z" fill="black"/>
<path d="M138.663 21.5814C138.663 22.8335 138.291 23.8197 137.551 24.5416C136.809 25.2635 135.736 25.6252 134.331 25.6252C132.926 25.6252 131.852 25.2635 131.112 24.5416C130.37 23.8197 130 22.8335 130 21.5814V8.26855H126.68V21.7829C126.68 23.9205 127.392 25.6434 128.817 26.9517C130.223 28.2221 132.062 28.8581 134.333 28.8581C136.604 28.8581 138.443 28.2221 139.849 26.9517C141.273 25.6434 141.986 23.9188 141.986 21.7829V8.26855H138.666V21.5814H138.663Z" fill="black"/>
<path d="M158.849 15.8924C157.423 14.4107 155.73 13.6689 153.766 13.6689C151.57 13.6689 149.887 14.4883 148.713 16.1237V14.0439H145.594V34.2584H148.713V26.4333C149.905 28.0505 151.59 28.8583 153.766 28.8583C155.748 28.8583 157.443 28.1265 158.849 26.6629C160.253 25.1993 160.957 23.4004 160.957 21.2628C160.957 19.1467 160.255 17.356 158.849 15.8924ZM156.539 24.5848C155.672 25.4504 154.585 25.8849 153.277 25.8849C151.967 25.8849 150.88 25.4521 150.014 24.5848C149.149 23.6796 148.714 22.5728 148.714 21.2645C148.714 19.9363 149.147 18.8394 150.014 17.9722C150.88 17.0868 151.968 16.644 153.277 16.644C154.585 16.644 155.674 17.0868 156.539 17.9722C157.405 18.8378 157.839 19.9363 157.839 21.2645C157.839 22.5926 157.405 23.6994 156.539 24.5848Z" fill="black"/>
<defs>
<linearGradient id="paint0_linear_273_2027" x1="40.9945" y1="-0.230327" x2="11.1599" y2="29.8392" gradientUnits="userSpaceOnUse">
<stop stop-color="#FBCB24"/>
<stop offset="0.5168" stop-color="#E939D9"/>
<stop offset="1" stop-color="#2ABAE9"/>
</linearGradient>
<linearGradient id="paint1_linear_273_2027" x1="28.9531" y1="11.815" x2="14.1498" y2="26.7342" gradientUnits="userSpaceOnUse">
<stop stop-color="#FBCB24"/>
<stop offset="0.5168" stop-color="#E939D9"/>
<stop offset="1" stop-color="#2ABAE9"/>
</linearGradient>
<linearGradient id="paint2_linear_273_2027" x1="17.4416" y1="11.4629" x2="2.63735" y2="26.3823" gradientUnits="userSpaceOnUse">
<stop stop-color="#FBCB24"/>
<stop offset="0.5168" stop-color="#E939D9"/>
<stop offset="1" stop-color="#2ABAE9"/>
</linearGradient>
<linearGradient id="paint3_linear_273_2027" x1="28.7188" y1="23.1744" x2="13.9155" y2="38.0936" gradientUnits="userSpaceOnUse">
<stop stop-color="#FBCB24"/>
<stop offset="0.5168" stop-color="#E939D9"/>
<stop offset="1" stop-color="#2ABAE9"/>
</linearGradient>
</defs>
</svg>
