<svg width="447" height="523" viewBox="0 0 447 523" fill="none" xmlns="http://www.w3.org/2000/svg">
<path d="M573.645 78.4133L573.399 78.3638C571.146 85.737 564.399 92.1508 553.89 96.9124C544.062 101.235 532.609 103.928 520.074 104.865C507.177 105.837 493.778 105.333 480.822 104.847C469.709 104.429 458.216 103.998 447.066 104.496C383.993 107.313 331.651 143.272 327.905 186.361C327.73 188.374 327.64 190.452 327.552 192.463C327.212 200.346 326.86 208.497 321.354 215.099C316.312 221.143 307.362 225.285 295.469 227.075C284.77 228.654 272.935 228.326 260.79 226.114C248.546 223.836 236.663 220.08 225.171 216.449C215.431 213.371 205.36 210.189 195.091 207.909C178.73 204.277 161.104 202.915 144.118 203.967C126.783 205.093 110.799 208.487 96.8336 214.006C82.6693 219.662 70.6901 227.331 61.3644 236.713C52.1037 246.054 45.8616 256.876 43.3124 268.007L43.5607 268.048C46.1041 256.939 52.3336 246.14 61.5758 236.817C70.8832 227.455 82.838 219.801 96.973 214.156C110.911 208.648 126.863 205.261 144.163 204.138C161.115 203.087 178.706 204.447 195.034 208.071C205.287 210.347 215.351 213.528 225.083 216.603C236.585 220.238 248.479 223.996 260.745 226.279C272.932 228.498 284.808 228.827 295.544 227.242C307.5 225.442 316.502 221.276 321.574 215.193C327.108 208.557 327.461 200.386 327.803 192.484C327.89 190.474 327.98 188.397 328.155 186.387C331.895 143.374 384.144 107.478 447.104 104.666C458.24 104.169 469.725 104.6 480.831 105.018C493.798 105.505 507.206 106.008 520.124 105.035C532.696 104.095 544.184 101.393 554.041 97.057C564.6 92.274 571.378 85.8266 573.645 78.4133Z" fill="url(#paint0_linear_273_1904)" fill-opacity="0.2"/>
<path d="M572.652 77.2728L572.305 77.186C569.565 83.7302 562.428 89.615 551.667 94.2039C541.658 98.3463 530.332 101.146 518.056 102.512C516.552 102.681 514.98 102.84 513.379 102.985C502.899 103.932 492.389 104.031 482.225 104.126C471.527 104.227 460.462 104.331 449.764 105.452C433.483 107.156 417.873 111.873 404.75 116.263C388.101 121.832 375.671 127.161 365.631 133.034C350.412 141.944 338.74 152.973 331.877 164.93C328.951 169.897 326.822 175.222 325.519 180.834C324.86 183.768 324.489 186.822 324.096 190.055C323.741 192.972 323.375 195.989 322.777 198.884C322.057 202.903 320.529 206.657 318.233 210.046C313.868 216.188 306.467 220.55 296.235 223.008C286.647 225.289 275.739 225.749 264.307 224.354C253.491 222.974 242.939 220.27 232.735 217.653C223.749 215.35 214.458 212.968 204.897 211.453C190.228 209.131 174.359 208.909 159.006 210.809C142.095 212.987 126.658 217.286 113.262 223.549C99.5884 229.991 87.9364 238.163 78.6499 247.824C69.3408 257.494 62.6077 268.51 59.1788 279.68L59.532 279.751C62.9524 268.608 69.6693 257.619 78.956 247.972C88.2195 238.334 99.8427 230.182 113.482 223.757C126.842 217.511 142.237 213.223 159.102 211.051C174.408 209.157 190.226 209.378 204.846 211.692C214.383 213.204 223.662 215.582 232.636 217.883C242.856 220.503 253.424 223.212 264.272 224.596C275.77 225.998 286.739 225.535 296.382 223.241C306.55 220.798 314.219 216.277 318.56 210.169C320.871 206.76 322.409 202.983 323.133 198.939C323.733 196.038 324.1 193.017 324.455 190.097C324.847 186.868 325.217 183.818 325.876 180.893C327.174 175.298 329.296 169.989 332.213 165.038C339.058 153.113 350.7 142.113 365.879 133.227C375.898 127.366 388.306 122.046 404.932 116.485C418.032 112.103 433.613 107.394 449.851 105.695C460.524 104.577 471.576 104.473 482.263 104.372C492.437 104.276 502.957 104.177 513.457 103.229C515.061 103.083 516.639 102.923 518.144 102.754C530.465 101.383 541.831 98.5734 551.877 94.4159C562.706 89.7986 569.89 83.8707 572.652 77.2728Z" fill="url(#paint1_linear_273_1904)" fill-opacity="0.2"/>
<path d="M571.653 76.1405L571.212 76.0031C564.062 88.7286 538.018 96.8258 516.03 100.16C514.574 100.381 513.055 100.598 511.511 100.809C502.032 102.093 492.806 102.681 483.883 103.25C473.016 103.943 462.752 104.597 452.449 106.41C441.476 108.341 430.567 112.106 419.017 116.093C415.838 117.19 412.551 118.324 409.23 119.431C406.528 120.331 403.848 121.215 401.192 122.081C389.254 125.994 377.979 129.692 368.291 134.17C352.408 141.523 339.686 150.861 331.5 161.176C327.911 165.491 325.108 170.225 323.136 175.301C321.672 179.184 320.884 183.756 320.122 188.179C319.824 189.912 319.515 191.706 319.169 193.443C318.194 198.324 316.942 201.888 315.109 204.997C311.295 211.368 304.668 216.25 295.949 219.111C287.705 221.88 278.106 223.068 267.807 222.595C258.352 222.084 249.069 220.389 240.091 218.75C231.923 217.258 223.477 215.716 214.686 214.997C201.301 213.907 186.758 214.852 172.628 217.728C157.47 220.797 142.621 226.111 129.684 233.096C103.82 247.089 83.9047 268.321 75.0457 291.35L75.5007 291.457C84.3373 268.487 104.2 247.31 129.996 233.354C142.891 226.392 157.692 221.095 172.799 218.036C186.871 215.172 201.351 214.231 214.672 215.315C223.429 216.031 231.857 217.57 240.009 219.059C249.008 220.702 258.313 222.401 267.814 222.914C278.197 223.391 287.874 222.193 296.186 219.401C304.997 216.51 311.694 211.578 315.546 205.14C317.394 202.006 318.655 198.421 319.634 193.514C319.981 191.774 320.291 189.98 320.589 188.244C321.35 183.832 322.135 179.27 323.592 175.407C325.555 170.354 328.345 165.642 331.918 161.348C340.072 151.072 352.749 141.768 368.579 134.441C378.239 129.974 389.502 126.281 401.425 122.372C404.079 121.502 406.76 120.619 409.467 119.721C412.79 118.614 416.078 117.479 419.258 116.381C430.787 112.402 441.676 108.644 452.605 106.721C462.873 104.915 473.12 104.261 483.968 103.569C492.903 103 502.14 102.411 511.643 101.123C513.189 100.913 514.712 100.694 516.17 100.474C538.266 97.1233 564.444 88.9716 571.653 76.1405Z" fill="url(#paint2_linear_273_1904)" fill-opacity="0.2"/>
<path d="M570.642 75.0133L570.121 74.8089C560.249 87.9847 524.664 95.7432 513.992 97.8073C512.525 98.0913 511.071 98.3662 509.632 98.6321C501.366 100.155 493.538 101.148 485.968 102.108C475.246 103.468 465.12 104.752 455.119 107.369C447.962 109.242 440.734 112.166 433.082 115.261C426.959 117.738 420.629 120.299 413.705 122.596C406.26 125.067 398.902 127.101 391.786 129.068C384.348 131.123 377.322 133.065 370.96 135.3C354.538 141.08 340.766 148.725 331.132 157.408C327.508 160.675 323.721 164.32 320.753 169.759C318.131 174.561 316.94 180.774 315.789 186.783L315.556 187.999C314.877 192.159 313.681 196.156 311.979 199.95C308.906 206.405 303.293 211.652 295.645 215.217C288.707 218.455 280.418 220.366 271.283 220.833C263.073 221.189 255.308 220.494 247.088 219.758C239.844 219.109 232.354 218.439 224.45 218.538C212.353 218.7 199.139 220.813 186.234 224.649C172.226 228.786 158.347 235.009 146.097 242.644C121.715 257.878 101.6 279.882 90.9094 303.014L91.463 303.163C102.127 280.089 122.191 258.14 146.509 242.946C158.717 235.337 172.548 229.136 186.504 225.014C199.345 221.197 212.488 219.094 224.513 218.933C232.373 218.835 239.842 219.503 247.064 220.15C255.314 220.889 263.105 221.586 271.371 221.228C280.606 220.756 288.987 218.824 296.001 215.55C303.74 211.944 309.42 206.635 312.53 200.104C314.244 196.289 315.448 192.269 316.13 188.085L316.364 186.868C317.511 180.881 318.697 174.689 321.299 169.926C324.242 164.531 328.004 160.91 331.606 157.664C341.194 149.022 354.907 141.411 371.261 135.654C377.603 133.427 384.617 131.489 392.044 129.436C399.168 127.467 406.535 125.432 413.995 122.955C420.938 120.651 427.278 118.086 433.41 115.606C441.042 112.519 448.251 109.603 455.368 107.74C465.323 105.136 475.426 103.855 486.123 102.498C493.704 101.536 501.543 100.542 509.829 99.0143C511.27 98.7475 512.726 98.4724 514.197 98.189C524.918 96.1147 560.676 88.3145 570.642 75.0133Z" fill="url(#paint3_linear_273_1904)" fill-opacity="0.2"/>
<path d="M569.626 73.8978L569.047 73.6083C561.797 80.8182 542.59 88.1698 511.955 95.4599L507.75 96.4605C501.082 98.0428 494.883 99.2802 488.888 100.477C477.971 102.656 467.659 104.714 457.78 108.338C452.799 110.165 447.747 112.662 442.396 115.306C435.366 118.781 427.397 122.719 418.185 125.765C408.015 129.128 397.968 131.205 388.253 133.212C383.089 134.28 378.21 135.288 373.646 136.429C356.706 140.683 341.886 146.633 330.787 153.634C326.734 156.192 322.141 159.091 318.382 164.213C314.833 169.044 313.192 175.885 311.947 182.559C311.177 186.691 310.38 190.965 308.852 194.911C306.443 201.451 301.831 207.055 295.334 211.338C289.635 215.017 282.652 217.642 274.736 219.082C267.672 220.305 260.915 220.527 253.761 220.763C247.072 220.886 240.538 221.328 234.195 222.088C223.392 223.525 211.51 226.807 199.834 231.579C186.059 237.302 173.56 244.208 162.511 252.198C139.663 268.593 119.35 291.368 106.778 314.679L107.428 314.876C119.972 291.616 140.237 268.894 163.03 252.537C174.042 244.575 186.498 237.693 200.224 231.988C211.841 227.241 223.653 223.977 234.384 222.55C240.696 221.795 247.2 221.355 253.856 221.232C261.044 220.996 267.834 220.772 274.96 219.538C282.981 218.08 290.056 215.42 295.831 211.693C302.409 207.359 307.079 201.688 309.52 195.069C311.058 191.094 311.858 186.806 312.632 182.66C313.868 176.024 315.497 169.227 319.004 164.453C322.712 159.398 327.264 156.526 331.28 153.993C342.32 147.027 357.069 141.108 373.934 136.873C378.48 135.736 383.35 134.729 388.506 133.664C398.245 131.651 408.315 129.57 418.53 126.191C427.789 123.13 435.782 119.18 442.833 115.695C448.166 113.06 453.203 110.57 458.146 108.757C467.969 105.154 478.25 103.102 489.135 100.929C495.138 99.7314 501.344 98.4926 508.027 96.9059L512.233 95.905C542.993 88.5861 562.304 81.1814 569.626 73.8978Z" fill="url(#paint4_linear_273_1904)" fill-opacity="0.2"/>
<path d="M568.594 72.7898L567.99 72.3981C558.456 79.3242 534.191 86.2154 514.693 91.7526L509.914 93.1124C508.538 93.5057 507.187 93.898 505.863 94.2892C501.577 95.5555 497.566 96.6808 493.687 97.7691C481.284 101.25 470.573 104.257 460.431 109.314C456.927 111.061 453.37 113.239 449.604 115.545C442.129 120.122 433.656 125.31 422.667 128.932C410.559 132.923 397.989 134.596 386.899 136.072C383.196 136.564 379.699 137.03 376.349 137.559C359.003 140.313 343.139 144.564 330.47 149.854L330.162 149.982C325.339 151.996 320.351 154.078 316.02 158.661C312.406 162.479 309.894 168.517 308.341 177.118C308.182 177.998 308.028 178.873 307.879 179.742C307.261 183.295 306.678 186.65 305.727 189.874C303.629 196.99 300.025 202.91 295.015 207.469C290.497 211.597 284.807 214.931 278.162 217.345C272.075 219.522 266.144 220.708 259.866 221.964C254.822 222.973 249.605 224.016 243.917 225.648C234.398 228.396 223.855 232.845 213.426 238.515C200.838 245.424 189.306 253.191 178.924 261.753C157.733 279.151 137.223 302.692 122.652 326.34L123.393 326.589C137.938 302.983 158.408 279.487 179.556 262.124C189.908 253.587 201.405 245.842 213.957 238.954C224.337 233.31 234.823 228.884 244.281 226.153C249.932 224.533 255.128 223.494 260.153 222.489C266.467 221.225 272.431 220.032 278.581 217.832C285.319 215.386 291.089 212.006 295.671 207.821C300.744 203.203 304.391 197.216 306.511 190.027C307.468 186.782 308.053 183.417 308.673 179.855C308.823 178.986 308.977 178.112 309.134 177.233C310.673 168.709 313.149 162.74 316.702 158.984C320.947 154.493 325.866 152.44 330.623 150.455L330.93 150.326C343.535 145.063 359.325 140.832 376.595 138.09C379.932 137.564 383.422 137.099 387.118 136.607C398.253 135.125 410.873 133.445 423.065 129.427C434.144 125.776 442.657 120.563 450.167 115.965C453.919 113.668 457.463 111.498 460.94 109.764C471.012 104.742 481.687 101.746 494.046 98.2765C497.929 97.1872 501.942 96.0604 506.235 94.7924C507.555 94.401 508.903 94.0097 510.277 93.6184L515.055 92.2594C534.615 86.7045 558.958 79.7907 568.594 72.7898Z" fill="url(#paint5_linear_273_1904)" fill-opacity="0.2"/>
<path d="M566.951 71.1807C559.537 74.9605 545.489 79.1917 530.616 83.671C522.845 86.0113 514.809 88.4316 507.864 90.7675C506.531 91.215 505.231 91.6665 503.965 92.1221L503.857 92.1614C486.106 98.5286 474.379 102.736 463.07 110.3C460.67 111.905 458.24 113.768 455.667 115.74C448.183 121.474 439.701 127.974 427.145 132.099C413.478 136.589 399.171 137.449 386.549 138.208C383.937 138.365 381.47 138.513 379.061 138.69C361.972 139.918 345.606 142.39 330.176 146.074L329.479 146.244C324.162 147.54 318.664 148.881 313.661 153.104C308.151 157.753 305.764 165.771 304.731 171.677C304.401 173.563 304.126 175.444 303.86 177.262C303.474 179.902 303.11 182.394 302.598 184.841C301.005 192.46 298.419 198.601 294.692 203.616C291.274 208.204 286.861 212.243 281.563 215.631C276.166 219.09 270.717 221.483 264.948 224.016C261.376 225.584 257.684 227.206 253.615 229.226C244.099 234.115 235.213 239.536 227.008 245.46C215.653 253.528 205.08 262.157 195.329 271.312C175.839 289.572 155.664 313.255 138.524 337.999L139.351 338.304C156.472 313.591 176.618 289.939 196.08 271.707C205.81 262.571 216.359 253.961 227.689 245.91C235.862 240.009 244.713 234.608 254.193 229.739C258.241 227.727 261.925 226.111 265.487 224.546C271.287 221.999 276.766 219.594 282.216 216.101C287.58 212.67 292.048 208.581 295.509 203.935C299.279 198.864 301.892 192.665 303.498 184.982C304.012 182.524 304.377 180.025 304.764 177.379C305.03 175.563 305.304 173.685 305.633 171.806C306.653 165.973 308.999 158.066 314.388 153.52C319.25 149.415 324.639 148.101 329.852 146.83L330.549 146.66C345.918 142.991 362.218 140.529 379.239 139.306C381.638 139.131 384.102 138.983 386.709 138.826C399.404 138.062 413.793 137.197 427.596 132.662C440.298 128.489 448.836 121.947 456.368 116.175C458.933 114.21 461.355 112.354 463.735 110.762C474.96 103.253 486.646 99.0609 504.335 92.7157L504.444 92.677C505.702 92.2231 506.995 91.7738 508.322 91.329C515.253 88.998 523.279 86.58 531.043 84.2416C545.96 79.7494 560.048 75.5064 567.536 71.689L566.951 71.1807Z" fill="url(#paint6_linear_273_1904)" fill-opacity="0.2"/>
<path d="M565.944 69.9603C561.51 71.4271 555.151 73.2117 547.789 75.2779C534.598 78.9804 518.181 83.5885 505.81 88.4251C504.502 88.9363 503.241 89.4521 502.064 89.9589C484.511 97.4785 474.657 103.261 465.707 111.295C464.185 112.662 462.648 114.158 461.02 115.742C454.191 122.388 445.692 130.658 431.624 135.266C416.609 140.183 400.745 140.015 386.749 139.866C385.057 139.848 383.4 139.831 381.786 139.823C364.056 139.756 346.725 140.583 329.907 142.299L329.074 142.383C323.172 142.979 317.067 143.596 311.314 147.545C304.399 152.288 301.961 161.292 301.123 166.237C300.623 169.183 300.318 172.096 300.023 174.913C299.85 176.572 299.679 178.207 299.472 179.81C298.408 188.062 296.74 194.593 294.372 199.775C292.011 204.868 288.861 209.614 284.968 213.945C279.699 219.901 274.336 224.125 267.547 229.474C266.195 230.538 264.787 231.647 263.311 232.824C255.807 238.843 248.163 245.433 240.591 252.412C230.673 261.485 220.964 271.061 211.736 280.875C195.053 298.682 176.298 321.181 154.399 349.655L155.31 350.02C177.197 321.561 195.94 299.078 212.608 281.286C221.824 271.485 231.521 261.92 241.427 252.858C248.989 245.889 256.62 239.309 264.11 233.302C265.585 232.127 266.991 231.019 268.342 229.955C275.159 224.585 280.543 220.343 285.852 214.342C289.783 209.969 292.963 205.177 295.347 200.035C297.736 194.808 299.417 188.233 300.486 179.933C300.693 178.326 300.865 176.688 301.038 175.024C301.333 172.215 301.637 169.309 302.134 166.377C302.958 161.514 305.345 152.668 312.069 148.057C317.61 144.253 323.559 143.652 329.311 143.071L330.146 142.986C346.915 141.276 364.195 140.451 381.872 140.517C383.482 140.525 385.136 140.543 386.825 140.561C400.929 140.711 416.916 140.881 432.13 135.897C446.41 131.221 454.982 122.878 461.87 116.175C463.493 114.595 465.026 113.104 466.539 111.746C475.417 103.776 485.207 98.0332 502.661 90.5559C503.827 90.0545 505.076 89.5429 506.374 89.0357C518.694 84.2197 535.081 79.6203 548.248 75.9243C555.624 73.8541 561.994 72.0656 566.453 70.5906L565.944 69.9603Z" fill="url(#paint7_linear_273_1904)" fill-opacity="0.2"/>
<path d="M564.961 68.7437C550.901 71.2846 522.188 77.7962 503.751 86.0866C502.489 86.6538 501.281 87.2301 500.158 87.7998C483.45 96.2432 475.598 103.436 468.344 112.303C467.533 113.293 466.709 114.338 465.856 115.421C459.56 123.4 451.727 133.33 436.103 138.433C419.867 143.735 401.792 142.316 387.269 141.176L384.519 140.961C367.33 139.658 349.896 138.887 329.653 138.535L328.866 138.52C322.623 138.405 315.544 138.274 308.974 141.985C303.112 145.294 298.934 152.15 297.513 160.797C296.841 164.875 296.642 168.875 296.45 172.743L296.345 174.784C295.883 183.376 295.317 190.262 294.059 195.945C292.755 201.603 290.861 207.06 288.39 212.278C284.627 220.487 280.46 227.036 273.015 236.44C268.072 242.721 261.875 250.145 254.699 258.743L248.996 265.518C242.669 273.022 235.498 281.528 228.14 290.441C221.077 299.029 213.908 307.913 206.318 317.318C194.476 331.991 182.231 347.165 170.275 361.311L171.265 361.74C183.225 347.587 195.473 332.411 207.317 317.734C214.906 308.33 222.074 299.448 229.135 290.862C236.491 281.953 243.66 273.449 249.986 265.946L255.691 259.168C262.87 250.567 269.071 243.139 274.019 236.851C281.497 227.405 285.685 220.823 289.469 212.567C291.956 207.314 293.862 201.821 295.175 196.126C296.44 190.409 297.009 183.499 297.473 174.882L297.577 172.839C297.768 168.985 297.967 165 298.634 160.95C300.026 152.483 304.073 145.793 309.739 142.597C316.014 139.051 322.584 139.172 328.938 139.289L329.726 139.304C349.937 139.656 367.34 140.426 384.495 141.726L387.241 141.941C401.905 143.091 420.154 144.524 436.662 139.133C452.579 133.935 460.497 123.898 466.859 115.832C467.71 114.753 468.532 113.711 469.34 112.723C476.53 103.934 484.315 96.8046 500.882 88.4324C501.99 87.8704 503.183 87.3009 504.429 86.7408C522.759 78.4992 551.341 72.0195 565.34 69.4894L564.961 68.7437Z" fill="url(#paint8_linear_273_1904)" fill-opacity="0.2"/>
<path d="M564.001 67.5364C549.651 68.2955 520.013 74.3525 501.689 83.7508C500.483 84.3688 499.326 85.0062 498.248 85.6455C482.52 94.9379 476.376 104.038 470.983 113.319L470.233 114.614C465.03 123.623 457.904 135.96 440.582 141.6C423.199 147.261 403.661 144.457 387.963 142.206L387.26 142.105C368.421 139.418 350.91 137.337 335.461 135.501L328.787 134.706C321.892 133.879 314.076 132.942 306.642 136.425C300.066 139.502 295.304 146.58 293.904 155.356C293.254 160.049 293.026 164.859 293.221 169.76C293.279 173.275 293.402 176.539 293.521 179.697C293.688 184.164 293.847 188.385 293.757 192.12C293.589 199.173 292.691 205.428 291.835 210.616C290.297 220.946 287.249 230.809 282.733 240.064C279.262 247.341 274.363 255.936 267.755 266.34C261.743 275.731 254.15 286.744 244.545 300.009C223.156 329.661 204.056 353.525 186.154 372.965L187.219 373.46C205.141 353.997 224.259 330.111 245.664 300.436C255.277 287.161 262.877 276.137 268.898 266.735C275.52 256.307 280.432 247.69 283.913 240.391C288.453 231.086 291.518 221.17 293.065 210.785C293.924 205.577 294.825 199.298 294.995 192.21C295.084 188.457 294.926 184.229 294.757 179.751C294.639 176.597 294.517 173.336 294.458 169.827C294.265 164.96 294.49 160.183 295.133 155.522C296.498 146.965 301.085 140.092 307.402 137.135C314.454 133.831 321.687 134.699 328.682 135.537L335.358 136.332C350.796 138.167 368.295 140.247 387.113 142.931L387.815 143.031C403.694 145.31 423.455 148.145 441.195 142.369C458.903 136.602 466.12 124.107 471.39 114.984L472.139 113.69C477.481 104.499 483.562 95.4883 499.106 86.3047C500.164 85.6764 501.302 85.0499 502.488 84.4426C520.644 75.1309 549.996 69.1302 564.206 68.3789L564.001 67.5364Z" fill="url(#paint9_linear_273_1904)" fill-opacity="0.2"/>
<path d="M563.052 66.341C546.907 65.417 516.888 71.3828 499.624 81.4194C498.461 82.0945 497.355 82.7936 496.336 83.4958C481.668 93.5618 477.58 104.125 473.627 114.342C470.127 123.389 464.269 138.53 445.06 144.768C426.597 150.763 405.447 146.422 390.003 143.253C379.394 141.082 369.211 139.062 359.361 137.109C348.71 134.997 338.649 133.001 329.157 131.034L328.816 130.963C321.243 129.392 312.658 127.611 304.315 130.866C296.938 133.741 291.697 140.863 290.293 149.917C289.643 154.714 289.577 159.671 290.097 164.739C290.606 170.879 291.559 176.59 292.399 181.627C292.789 183.967 293.158 186.178 293.463 188.299C294.552 195.854 294.987 202.691 295.296 208.953C295.885 220.877 295.629 231.347 292.465 243.692C290.258 252.385 286.515 262.35 281.343 273.313C276.15 284.219 269.289 296.422 260.948 309.581C248.435 329.397 228.058 358.5 202.035 384.619L203.171 385.182C229.247 359.01 249.659 329.856 262.193 310.008C270.548 296.826 277.423 284.598 282.628 273.666C287.819 262.664 291.575 252.66 293.792 243.928C296.975 231.509 297.234 220.985 296.642 209.006C296.333 202.727 295.896 195.873 294.804 188.292C294.497 186.163 294.128 183.949 293.737 181.605C292.899 176.58 291.949 170.884 291.441 164.77C290.926 159.753 290.991 154.845 291.633 150.095C292.995 141.306 298.015 134.421 305.06 131.675C312.93 128.604 321.219 130.324 328.533 131.841L328.875 131.911C338.376 133.881 348.44 135.877 359.096 137.99C368.943 139.943 379.123 141.962 389.725 144.131C405.38 147.344 426.819 151.745 445.727 145.605C465.432 139.206 471.378 123.834 474.932 114.651C478.844 104.54 482.89 94.0841 497.333 84.1722C498.33 83.4858 499.412 82.8027 500.549 82.1417C517.096 72.5225 547.199 66.3494 563.061 67.2568L563.052 66.341Z" fill="url(#paint10_linear_273_1904)" fill-opacity="0.2"/>
<path d="M562.106 65.1548C545.538 62.6178 514.412 68.0384 497.557 79.0891C496.439 79.8222 495.384 80.5822 494.421 81.3481C481.579 91.5396 479.188 102.294 476.656 113.68L476.279 115.368C473.583 127.372 468.108 141.92 449.54 147.934C431.613 153.741 410.826 149.156 392.75 144.402L385.279 142.443C365.221 137.187 346.273 132.221 328.906 127.292C320.642 124.946 311.277 122.288 301.992 125.307C292.363 128.435 287.771 137.26 286.685 144.476C286.022 149.38 286.119 154.488 286.975 159.72C288.075 167.282 290.162 174.3 292.004 180.492C292.408 181.85 292.804 183.179 293.178 184.478C295.656 193.065 297.395 200.826 298.769 207.285C301.323 219.294 303.509 232.457 302.208 247.318C301.341 257.416 298.894 268.509 294.934 280.287C290.235 293.716 284.365 306.692 277.352 319.154C266.151 339.484 246.748 369.366 217.918 396.27L219.121 396.903C248.036 369.918 267.492 339.958 278.721 319.576C285.755 307.077 291.642 294.062 296.356 280.591C300.332 268.762 302.79 257.617 303.662 247.465C304.971 232.516 302.776 219.293 300.211 207.23C298.833 200.758 297.09 192.981 294.606 184.372C294.231 183.071 293.835 181.741 293.431 180.38C291.596 174.213 289.517 167.222 288.424 159.71C287.579 154.548 287.481 149.506 288.134 144.666C289.183 137.693 293.565 129.184 302.712 126.212C311.437 123.376 320.477 125.941 328.453 128.205C345.841 133.14 364.798 138.108 384.868 143.367L392.336 145.326C410.7 150.155 431.834 154.808 450.259 148.84C469.372 142.649 474.975 127.827 477.72 115.605L478.097 113.914C480.599 102.661 482.963 92.0327 495.562 82.0342C496.499 81.2888 497.525 80.5497 498.614 79.8358C515.176 68.9768 545.692 63.6408 561.913 66.1244L562.106 65.1548Z" fill="url(#paint11_linear_273_1904)" fill-opacity="0.2"/>
<path d="M561.16 63.9778C542.039 59.4389 510.738 65.5333 495.49 76.7639C494.422 77.5497 493.419 78.3713 492.508 79.207C481.019 89.72 480.149 100.947 479.227 112.833C479.135 114.02 479.043 115.209 478.939 116.4C477.331 134.852 469.18 146.204 454.022 151.101C436.175 156.868 415.348 151.845 395.499 145.557C375.104 139.105 351.212 131.446 328.651 123.554C320.326 120.621 309.963 116.97 299.677 119.75C292.742 121.623 284.741 127.674 283.077 139.038C282.401 144.051 282.663 149.313 283.856 154.703C285.581 163.14 288.898 171.074 291.824 178.074L292.9 180.657C296.019 188.188 298.903 195.885 302.25 205.613C306.631 218.545 311.213 234.047 311.962 250.942C312.482 262.414 311.329 274.635 308.531 287.264C305.167 301.659 300.23 315.516 293.759 328.73C279.308 358.932 258.576 386.316 233.804 407.922L235.071 408.627C259.941 386.935 280.751 359.45 295.252 329.144C301.747 315.879 306.703 301.967 310.081 287.517C312.891 274.825 314.051 262.541 313.527 251.006C312.774 234.016 308.174 218.448 303.774 205.461C300.42 195.714 297.531 188.003 294.406 180.455L293.328 177.869C290.416 170.904 287.116 163.01 285.407 154.65C284.232 149.348 283.972 144.171 284.636 139.238C285.637 132.399 290.357 123.452 300.364 120.749C310.006 118.143 320.004 121.665 328.037 124.496C350.628 132.398 374.538 140.063 394.949 146.52C415.154 152.92 436.387 158.023 454.794 152.076C470.451 147.016 478.861 135.399 480.503 116.559C480.606 115.366 480.702 114.175 480.791 112.986C481.701 101.255 482.56 90.1744 493.793 79.894C494.676 79.0851 495.648 78.2891 496.682 77.5283C511.597 66.542 542.144 60.5634 560.769 64.9848L561.16 63.9778Z" fill="url(#paint12_linear_273_1904)" fill-opacity="0.2"/>
<path d="M560.208 62.8053C540.202 56.5651 508.368 62.1111 493.42 74.4416C492.394 75.2884 491.443 76.1719 490.594 77.0686C480.206 88.0156 480.806 100.389 481.386 112.356C481.468 114.048 481.551 115.742 481.603 117.432C482.014 130.707 478.341 147.875 458.501 154.269C439.884 160.27 417.595 153.817 398.247 146.714C371.19 136.789 348.34 127.991 328.391 119.819C320.045 116.384 308.612 111.679 297.362 114.194C285.827 116.773 280.513 126.258 279.47 133.598C278.786 138.728 279.214 144.147 280.739 149.688C283.046 158.646 287.572 167.238 291.565 174.819L292.625 176.835C297.141 185.447 301.429 194.311 305.732 203.934C314.498 223.689 319.427 239.304 321.717 254.563C323.663 268.157 323.802 281.443 322.132 294.243C320.084 309.573 316.08 324.315 310.164 338.309C297.21 369.684 276.299 397.785 249.692 419.574L251.018 420.351C277.758 398.454 298.769 370.223 311.781 338.709C317.723 324.651 321.745 309.841 323.801 294.441C325.48 281.572 325.341 268.216 323.384 254.549C321.083 239.211 316.132 223.527 307.332 203.695C303.02 194.052 298.724 185.169 294.198 176.538L293.137 174.52C288.974 166.617 284.67 158.446 282.388 149.589C280.891 144.155 280.469 138.841 281.137 133.81C282.138 126.781 287.156 117.711 298.011 115.285C308.54 112.931 319.571 117.47 327.626 120.785C347.602 128.968 370.477 137.776 397.56 147.711C417.291 154.955 440.058 161.523 459.326 155.312C479.886 148.685 483.699 131.098 483.278 117.51C483.226 115.816 483.144 114.119 483.061 112.421C482.489 100.623 481.898 88.422 492.026 77.7496C492.843 76.885 493.761 76.0335 494.75 75.2173C509.045 63.4251 540.575 57.8955 559.629 63.8393L560.208 62.8053Z" fill="url(#paint13_linear_273_1904)" fill-opacity="0.2"/>
<path d="M559.25 61.6363C538.65 53.8407 505.652 58.9367 491.35 72.1217C490.369 73.0261 489.47 73.9718 488.679 74.9335C479.247 86.3806 481.315 99.4515 483.316 112.092C483.647 114.185 483.99 116.35 484.271 118.462C485.805 129.967 485.078 150.329 462.982 157.436C443.677 163.644 420.814 156.085 400.994 147.871C374.069 136.719 350.233 126.321 328.127 116.084C319.822 112.228 307.271 106.4 295.05 108.639C287.248 110.068 277.54 116.038 275.86 128.158C275.169 133.406 275.764 138.984 277.622 144.673C280.543 154.062 286.027 162.859 291.33 171.367L292.354 173.01C298.33 182.62 304.003 192.458 309.217 202.253C320.335 223.223 327.408 240.995 331.477 258.181C334.894 272.847 336.319 287.263 335.734 301.221C334.983 317.459 331.914 333.088 326.57 347.887C315.052 380.498 293.962 409.315 265.579 431.223L266.964 432.075C295.516 410.036 316.728 381.057 328.308 348.272C333.68 333.396 336.764 317.686 337.518 301.363C338.107 287.331 336.674 272.838 333.239 258.094C329.151 240.827 322.049 222.981 310.89 201.932C305.664 192.114 299.977 182.253 293.988 172.622L292.964 170.978C287.697 162.529 282.25 153.791 279.366 144.524C277.549 138.963 276.965 133.511 277.638 128.381C279.24 116.822 288.345 111.157 295.655 109.818C306.21 107.884 316.608 112.146 327.218 117.072C349.354 127.324 373.218 137.734 400.172 148.898C408.639 152.407 419.842 156.739 431.414 159.112C444.023 161.698 454.636 161.513 463.859 158.547C486.831 151.159 487.622 130.261 486.05 118.461C485.766 116.339 485.423 114.169 485.091 112.07C483.12 99.6147 481.082 86.7348 490.255 75.6014C491.015 74.6786 491.877 73.7707 492.819 72.9023C506.68 60.1227 538.598 55.1597 558.495 62.6894L559.25 61.6363Z" fill="url(#paint14_linear_273_1904)" fill-opacity="0.2"/>
<path d="M558.284 60.4699C536.678 51.0042 503.142 55.5413 489.279 69.8055C488.354 70.755 487.515 71.7554 486.765 72.8027C478.201 84.79 481.711 98.5985 485.104 111.952C485.734 114.434 486.387 117.001 486.943 119.494C493.669 149.678 473.732 158.591 467.461 160.604C447.38 167.048 422.858 157.805 403.739 149.032C377.168 136.845 351.639 124.504 327.859 112.35C316.766 106.675 304.916 101.284 292.739 103.086C280.163 104.947 273.387 114.288 272.25 122.72C271.552 128.09 272.316 133.829 274.505 139.661C277.993 149.298 284.527 158.519 290.846 167.438L292.082 169.184C299.455 179.559 306.391 190.118 312.701 200.57C325.972 222.59 335.307 242.619 341.238 261.799C346.085 277.527 348.799 293.072 349.338 308.202C349.863 325.326 347.73 341.842 342.976 357.468C332.856 391.352 311.587 420.884 281.469 442.873L282.907 443.801C313.236 421.657 334.65 391.931 344.835 357.835C349.616 342.12 351.761 325.509 351.233 308.287C350.69 293.078 347.963 277.453 343.09 261.643C337.135 242.38 327.764 222.273 314.444 200.173C308.118 189.694 301.165 179.108 293.775 168.709L292.539 166.963C286.266 158.11 279.78 148.956 276.343 139.459C274.207 133.777 273.46 128.185 274.138 122.953C275.217 114.946 281.56 106.089 293.297 104.353C304.684 102.667 316.098 107.878 326.813 113.36C350.623 125.529 376.183 137.885 402.784 150.086C422.34 159.058 447.47 168.497 468.391 161.783C478.2 158.635 484.798 152.613 488.002 143.886C491.225 135.105 490.223 125.731 488.816 119.414C488.257 116.907 487.603 114.333 486.97 111.845C483.627 98.6899 480.171 85.0877 488.483 73.4515C489.2 72.4504 490.003 71.4939 490.887 70.5858C504.261 56.8247 536.569 52.4288 557.366 61.5408L558.284 60.4699Z" fill="url(#paint15_linear_273_1904)" fill-opacity="0.2"/>
<path d="M557.313 59.3026C545.645 53.5636 530.578 51.5859 515.975 53.8777C501.37 56.1689 490.027 62.2901 484.852 70.6724C477.098 83.2282 482.03 97.8006 486.799 111.893C487.762 114.738 488.758 117.679 489.617 120.524C497.244 145.793 485.486 159.432 471.939 163.77C450.984 170.481 424.546 159.236 406.482 150.193C379.821 136.846 353.276 122.858 327.586 108.616C322.453 105.77 316.439 102.543 310.022 100.268C302.85 97.724 296.441 96.8301 290.427 97.5343C276.961 99.1095 269.782 108.587 268.64 117.281C266.538 133.276 278.759 148.788 290.579 163.79L291.812 165.356C335 220.261 358.267 269.269 362.943 315.18C368.619 370.928 344.715 421.717 297.358 454.522L298.847 455.526C346.566 422.47 370.657 371.326 364.942 315.208C360.247 269.091 336.897 219.89 293.56 164.797L292.325 163.229C280.656 148.418 268.59 133.103 270.636 117.524C271.718 109.302 278.413 100.349 290.936 98.8835C303.171 97.4515 315.169 103.415 326.41 109.647C352.129 123.905 378.703 137.908 405.395 151.271C444.022 170.607 462.433 168.377 472.921 165.018C494.527 158.1 496.725 137.416 491.578 120.366C490.714 117.504 489.716 114.554 488.75 111.702C484.053 97.8209 479.195 83.4672 486.71 71.2974C491.662 63.2775 502.552 57.4149 516.588 55.2125C530.625 53.0107 545.077 54.8967 556.241 60.3885L557.313 59.3026Z" fill="url(#paint16_linear_273_1904)" fill-opacity="0.2"/>
<defs>
<linearGradient id="paint0_linear_273_1904" x1="151.433" y1="233.877" x2="387.863" y2="304.04" gradientUnits="userSpaceOnUse">
<stop offset="0.015625" stop-color="white"/>
<stop offset="0.197917" stop-color="#994FFF"/>
<stop offset="1" stop-color="#4AB6FE"/>
</linearGradient>
<linearGradient id="paint1_linear_273_1904" x1="163.904" y1="243.12" x2="396.423" y2="305.405" gradientUnits="userSpaceOnUse">
<stop offset="0.015625" stop-color="white"/>
<stop offset="0.197917" stop-color="#994FFF"/>
<stop offset="1" stop-color="#4AB6FE"/>
</linearGradient>
<linearGradient id="paint2_linear_273_1904" x1="176.376" y1="252.365" x2="404.403" y2="307.367" gradientUnits="userSpaceOnUse">
<stop offset="0.015625" stop-color="white"/>
<stop offset="0.197917" stop-color="#994FFF"/>
<stop offset="1" stop-color="#4AB6FE"/>
</linearGradient>
<linearGradient id="paint3_linear_273_1904" x1="188.842" y1="261.608" x2="411.892" y2="309.899" gradientUnits="userSpaceOnUse">
<stop offset="0.015625" stop-color="white"/>
<stop offset="0.197917" stop-color="#994FFF"/>
<stop offset="1" stop-color="#4AB6FE"/>
</linearGradient>
<linearGradient id="paint4_linear_273_1904" x1="201.312" y1="270.854" x2="418.979" y2="312.984" gradientUnits="userSpaceOnUse">
<stop offset="0.015625" stop-color="white"/>
<stop offset="0.197917" stop-color="#994FFF"/>
<stop offset="1" stop-color="#4AB6FE"/>
</linearGradient>
<linearGradient id="paint5_linear_273_1904" x1="213.782" y1="280.099" x2="425.728" y2="316.59" gradientUnits="userSpaceOnUse">
<stop offset="0.015625" stop-color="white"/>
<stop offset="0.197917" stop-color="#994FFF"/>
<stop offset="1" stop-color="#4AB6FE"/>
</linearGradient>
<linearGradient id="paint6_linear_273_1904" x1="226.245" y1="289.343" x2="432.189" y2="320.687" gradientUnits="userSpaceOnUse">
<stop offset="0.015625" stop-color="white"/>
<stop offset="0.197917" stop-color="#994FFF"/>
<stop offset="1" stop-color="#4AB6FE"/>
</linearGradient>
<linearGradient id="paint7_linear_273_1904" x1="238.707" y1="298.586" x2="438.416" y2="325.248" gradientUnits="userSpaceOnUse">
<stop offset="0.015625" stop-color="white"/>
<stop offset="0.197917" stop-color="#994FFF"/>
<stop offset="1" stop-color="#4AB6FE"/>
</linearGradient>
<linearGradient id="paint8_linear_273_1904" x1="251.163" y1="307.832" x2="444.447" y2="330.246" gradientUnits="userSpaceOnUse">
<stop offset="0.015625" stop-color="white"/>
<stop offset="0.197917" stop-color="#994FFF"/>
<stop offset="1" stop-color="#4AB6FE"/>
</linearGradient>
<linearGradient id="paint9_linear_273_1904" x1="263.618" y1="317.079" x2="450.325" y2="335.655" gradientUnits="userSpaceOnUse">
<stop offset="0.015625" stop-color="white"/>
<stop offset="0.197917" stop-color="#994FFF"/>
<stop offset="1" stop-color="#4AB6FE"/>
</linearGradient>
<linearGradient id="paint10_linear_273_1904" x1="276.097" y1="326.334" x2="456.165" y2="341.471" gradientUnits="userSpaceOnUse">
<stop offset="0.015625" stop-color="white"/>
<stop offset="0.197917" stop-color="#994FFF"/>
<stop offset="1" stop-color="#4AB6FE"/>
</linearGradient>
<linearGradient id="paint11_linear_273_1904" x1="288.598" y1="335.593" x2="461.98" y2="347.657" gradientUnits="userSpaceOnUse">
<stop offset="0.015625" stop-color="white"/>
<stop offset="0.197917" stop-color="#994FFF"/>
<stop offset="1" stop-color="#4AB6FE"/>
</linearGradient>
<linearGradient id="paint12_linear_273_1904" x1="301.098" y1="344.829" x2="467.728" y2="354.132" gradientUnits="userSpaceOnUse">
<stop offset="0.015625" stop-color="white"/>
<stop offset="0.197917" stop-color="#994FFF"/>
<stop offset="1" stop-color="#4AB6FE"/>
</linearGradient>
<linearGradient id="paint13_linear_273_1904" x1="313.59" y1="354.017" x2="473.417" y2="360.845" gradientUnits="userSpaceOnUse">
<stop offset="0.015625" stop-color="white"/>
<stop offset="0.197917" stop-color="#994FFF"/>
<stop offset="1" stop-color="#4AB6FE"/>
</linearGradient>
<linearGradient id="paint14_linear_273_1904" x1="326.078" y1="363.178" x2="479.065" y2="367.809" gradientUnits="userSpaceOnUse">
<stop offset="0.015625" stop-color="white"/>
<stop offset="0.197917" stop-color="#994FFF"/>
<stop offset="1" stop-color="#4AB6FE"/>
</linearGradient>
<linearGradient id="paint15_linear_273_1904" x1="338.561" y1="372.307" x2="484.684" y2="374.998" gradientUnits="userSpaceOnUse">
<stop offset="0.015625" stop-color="white"/>
<stop offset="0.197917" stop-color="#994FFF"/>
<stop offset="1" stop-color="#4AB6FE"/>
</linearGradient>
<linearGradient id="paint16_linear_273_1904" x1="351.039" y1="381.41" x2="490.284" y2="382.405" gradientUnits="userSpaceOnUse">
<stop offset="0.015625" stop-color="white"/>
<stop offset="0.197917" stop-color="#994FFF"/>
<stop offset="1" stop-color="#4AB6FE"/>
</linearGradient>
</defs>
</svg>
