<svg width="1428" height="800" viewBox="0 0 1428 800" fill="none" xmlns="http://www.w3.org/2000/svg">
<g clip-path="url(#clip0_273_1773)">
<rect width="1440" height="800" fill="url(#paint0_linear_273_1773)" fill-opacity="0.3"/>
<rect x="1414.71" y="108.235" width="3.49443" height="3.79851" rx="1" fill="#D9D9D9"/>
<rect x="1414.71" y="119.326" width="3.49443" height="3.79851" rx="1" fill="#D9D9D9"/>
<rect x="1414.71" y="130.418" width="3.49443" height="3.79851" rx="1" fill="#D9D9D9"/>
<rect x="1414.71" y="141.509" width="3.49443" height="3.79851" rx="1" fill="#D9D9D9"/>
<rect x="1414.71" y="152.601" width="3.49443" height="3.79851" rx="1" fill="#D9D9D9"/>
<rect x="1414.71" y="163.692" width="3.49443" height="3.79851" rx="1" fill="#D9D9D9"/>
<rect x="1414.71" y="174.784" width="3.49443" height="3.79851" rx="1" fill="#D9D9D9"/>
<rect x="1414.71" y="185.875" width="3.49443" height="3.79851" rx="1" fill="#D9D9D9"/>
<rect x="1426.71" y="108.235" width="3.49443" height="3.79851" rx="1" fill="#D9D9D9"/>
<rect x="1426.71" y="119.326" width="3.49443" height="3.79851" rx="1" fill="#D9D9D9"/>
<rect x="1426.71" y="130.418" width="3.49443" height="3.79851" rx="1" fill="#D9D9D9"/>
<rect x="1426.71" y="141.509" width="3.49443" height="3.79851" rx="1" fill="#D9D9D9"/>
<rect x="1426.71" y="152.601" width="3.49443" height="3.79851" rx="1" fill="#D9D9D9"/>
<rect x="1426.71" y="163.692" width="3.49443" height="3.79851" rx="1" fill="#D9D9D9"/>
<rect x="1426.71" y="174.784" width="3.49443" height="3.79851" rx="1" fill="#D9D9D9"/>
<rect x="1426.71" y="185.875" width="3.49443" height="3.79851" rx="1" fill="#D9D9D9"/>
<rect y="237.9" width="3.49443" height="3.79851" rx="1" fill="#D9D9D9"/>
<rect y="248.992" width="3.49443" height="3.79851" rx="1" fill="#D9D9D9"/>
<rect y="260.083" width="3.49443" height="3.79851" rx="1" fill="#D9D9D9"/>
<rect y="271.175" width="3.49443" height="3.79851" rx="1" fill="#D9D9D9"/>
<rect y="282.266" width="3.49443" height="3.79851" rx="1" fill="#D9D9D9"/>
<rect y="293.357" width="3.49443" height="3.79851" rx="1" fill="#D9D9D9"/>
<rect y="304.449" width="3.49443" height="3.79851" rx="1" fill="#D9D9D9"/>
<rect y="315.541" width="3.49443" height="3.79851" rx="1" fill="#D9D9D9"/>
<rect x="12.0039" y="237.9" width="3.49443" height="3.79851" rx="1" fill="#D9D9D9"/>
<rect x="12.0039" y="248.992" width="3.49443" height="3.79851" rx="1" fill="#D9D9D9"/>
<rect x="12.0039" y="260.083" width="3.49443" height="3.79851" rx="1" fill="#D9D9D9"/>
<rect x="12.0039" y="271.175" width="3.49443" height="3.79851" rx="1" fill="#D9D9D9"/>
<rect x="12.0039" y="282.267" width="3.49443" height="3.79851" rx="1" fill="#D9D9D9"/>
<rect x="12.0039" y="293.357" width="3.49443" height="3.79851" rx="1" fill="#D9D9D9"/>
<rect x="12.0039" y="304.449" width="3.49443" height="3.79851" rx="1" fill="#D9D9D9"/>
<rect x="12.0039" y="315.541" width="3.49443" height="3.79851" rx="1" fill="#D9D9D9"/>
<rect x="24.0078" y="237.9" width="3.49443" height="3.79851" rx="1" fill="#D9D9D9"/>
<rect x="24.0078" y="248.992" width="3.49443" height="3.79851" rx="1" fill="#D9D9D9"/>
<rect x="24.0078" y="260.083" width="3.49443" height="3.79851" rx="1" fill="#D9D9D9"/>
<rect x="24.0078" y="271.175" width="3.49443" height="3.79851" rx="1" fill="#D9D9D9"/>
<rect x="24.0078" y="282.267" width="3.49443" height="3.79851" rx="1" fill="#D9D9D9"/>
<rect x="24.0078" y="293.357" width="3.49443" height="3.79851" rx="1" fill="#D9D9D9"/>
<rect x="24.0078" y="304.449" width="3.49443" height="3.79851" rx="1" fill="#D9D9D9"/>
<rect x="24.0078" y="315.541" width="3.49443" height="3.79851" rx="1" fill="#D9D9D9"/>
<rect x="36.0078" y="237.9" width="3.49443" height="3.79851" rx="1" fill="#D9D9D9"/>
<rect x="36.0078" y="248.992" width="3.49443" height="3.79851" rx="1" fill="#D9D9D9"/>
<rect x="36.0078" y="260.083" width="3.49443" height="3.79851" rx="1" fill="#D9D9D9"/>
<rect x="36.0078" y="271.175" width="3.49443" height="3.79851" rx="1" fill="#D9D9D9"/>
<rect x="36.0078" y="282.267" width="3.49443" height="3.79851" rx="1" fill="#D9D9D9"/>
<rect x="36.0078" y="293.357" width="3.49443" height="3.79851" rx="1" fill="#D9D9D9"/>
<rect x="36.0078" y="304.449" width="3.49443" height="3.79851" rx="1" fill="#D9D9D9"/>
<rect x="36.0078" y="315.541" width="3.49443" height="3.79851" rx="1" fill="#D9D9D9"/>
<rect x="48.0117" y="237.9" width="3.49443" height="3.79851" rx="1" fill="#D9D9D9"/>
<rect x="48.0117" y="248.992" width="3.49443" height="3.79851" rx="1" fill="#D9D9D9"/>
<rect x="48.0117" y="260.083" width="3.49443" height="3.79851" rx="1" fill="#D9D9D9"/>
<rect x="48.0117" y="271.175" width="3.49443" height="3.79851" rx="1" fill="#D9D9D9"/>
<rect x="48.0117" y="282.266" width="3.49443" height="3.79851" rx="1" fill="#D9D9D9"/>
<rect x="48.0117" y="293.357" width="3.49443" height="3.79851" rx="1" fill="#D9D9D9"/>
<rect x="48.0117" y="304.449" width="3.49443" height="3.79851" rx="1" fill="#D9D9D9"/>
<rect x="48.0117" y="315.541" width="3.49443" height="3.79851" rx="1" fill="#D9D9D9"/>
<rect x="1408.2" y="695.352" width="3.49443" height="3.79851" rx="1" fill="#D9D9D9"/>
<rect x="1408.2" y="706.444" width="3.49443" height="3.79851" rx="1" fill="#D9D9D9"/>
<rect x="1408.2" y="717.535" width="3.49443" height="3.79851" rx="1" fill="#D9D9D9"/>
<rect x="1408.2" y="728.627" width="3.49443" height="3.79851" rx="1" fill="#D9D9D9"/>
<rect x="1408.2" y="739.718" width="3.49443" height="3.79851" rx="1" fill="#D9D9D9"/>
<rect x="1408.2" y="750.81" width="3.49443" height="3.79851" rx="1" fill="#D9D9D9"/>
<rect x="1408.2" y="761.901" width="3.49443" height="3.79851" rx="1" fill="#D9D9D9"/>
<rect x="1408.2" y="772.992" width="3.49443" height="3.79851" rx="1" fill="#D9D9D9"/>
<rect x="1420.2" y="695.352" width="3.49443" height="3.79851" rx="1" fill="#D9D9D9"/>
<rect x="1420.2" y="706.444" width="3.49443" height="3.79851" rx="1" fill="#D9D9D9"/>
<rect x="1420.2" y="717.535" width="3.49443" height="3.79851" rx="1" fill="#D9D9D9"/>
<rect x="1420.2" y="728.627" width="3.49443" height="3.79851" rx="1" fill="#D9D9D9"/>
<rect x="1420.2" y="739.718" width="3.49443" height="3.79851" rx="1" fill="#D9D9D9"/>
<rect x="1420.2" y="750.81" width="3.49443" height="3.79851" rx="1" fill="#D9D9D9"/>
<rect x="1420.2" y="761.901" width="3.49443" height="3.79851" rx="1" fill="#D9D9D9"/>
<rect x="1420.2" y="772.992" width="3.49443" height="3.79851" rx="1" fill="#D9D9D9"/>
</g>
<defs>
<linearGradient id="paint0_linear_273_1773" x1="720" y1="0" x2="720" y2="828.371" gradientUnits="userSpaceOnUse">
<stop stop-color="#2CB9E9"/>
<stop offset="0.222608" stop-color="#6268FA"/>
<stop offset="0.69088" stop-color="white"/>
<stop offset="1" stop-color="white"/>
</linearGradient>
<clipPath id="clip0_273_1773">
<rect width="1440" height="800" fill="white"/>
</clipPath>
</defs>
</svg>
