<svg width="14" height="14" viewBox="0 0 14 14" fill="none" xmlns="http://www.w3.org/2000/svg">
<g clip-path="url(#clip0_273_2412)">
<path d="M13.7227 2.6352C13.2392 2.84727 12.7241 2.98783 12.187 3.05608C12.7395 2.7262 13.1612 2.20783 13.3595 1.58302C12.8443 1.89014 12.2756 2.10708 11.6695 2.22814C11.1803 1.70733 10.4832 1.38477 9.72272 1.38477C8.24722 1.38477 7.05934 2.58239 7.05934 4.05058C7.05934 4.26183 7.07722 4.46495 7.12109 4.65833C4.90541 4.55027 2.94484 3.48833 1.62778 1.87064C1.39784 2.26958 1.26297 2.7262 1.26297 3.21777C1.26297 4.14077 1.73828 4.95895 2.44678 5.43264C2.01859 5.42452 1.59853 5.3002 1.24266 5.10439C1.24266 5.11252 1.24266 5.12308 1.24266 5.13364C1.24266 6.42877 2.16647 7.50452 3.37791 7.75233C3.16097 7.81164 2.92453 7.84008 2.67916 7.84008C2.50853 7.84008 2.33628 7.83033 2.17459 7.79458C2.51991 8.85002 3.49978 9.62595 4.66491 9.65114C3.75816 10.3605 2.60684 10.7878 1.36047 10.7878C1.14191 10.7878 0.932281 10.7781 0.722656 10.7513C1.90322 11.5126 3.30234 11.9473 4.81116 11.9473C9.71541 11.9473 12.3967 7.88477 12.3967 4.36339C12.3967 4.24558 12.3926 4.13183 12.3869 4.01889C12.9158 3.64352 13.3603 3.1747 13.7227 2.6352Z" fill="#1A202C"/>
</g>
<defs>
<clipPath id="clip0_273_2412">
<rect width="13" height="13" fill="white" transform="translate(0.722656 0.166016)"/>
</clipPath>
</defs>
</svg>
